HIERARCHY
ROOT Hips
{
	OFFSET 0.000000 0.000000 0.000000
	CHANNELS 6 Xposition Yposition Zposition Xrotation Yrotation Zrotation
	JOINT LeftUpLeg_virtual
	{
		OFFSET 0.000000 0.000000 0.000000
		CHANNELS 3 Xrotation Yrotation Zrotation
		JOINT LeftUpLeg
		{
			OFFSET 13.026900 -6.336304 -1.092800
			CHANNELS 3 Xrotation Yrotation Zrotation
			JOINT LeftLeg
			{
				OFFSET 0.524474 -46.096886 9.782700
				CHANNELS 3 Xrotation Yrotation Zrotation
				JOINT LeftFoot
				{
					OFFSET -0.524474 -53.427422 -12.948200
					CHANNELS 3 Xrotation Yrotation Zrotation
					JOINT LeftToeBase
					{
						OFFSET 0.192200 -14.009700 16.364100
						CHANNELS 3 Xrotation Yrotation Zrotation
						JOINT LeftToe_End
						{
							OFFSET -1.784700 -0.561700 9.474800
							CHANNELS 3 Xrotation Yrotation Zrotation
							End Site
							{
								OFFSET 0 0 0
							}
						}
					}
				}
			}
		}
	}
	JOINT RightUpLeg_virtual
	{
		OFFSET 0.000000 0.000000 0.000000
		CHANNELS 3 Xrotation Yrotation Zrotation
		JOINT RightUpLeg
		{
			OFFSET -12.883000 -6.336304 -1.092800
			CHANNELS 3 Xrotation Yrotation Zrotation
			JOINT RightLeg
			{
				OFFSET -0.524587 -46.096825 9.782800
				CHANNELS 3 Xrotation Yrotation Zrotation
				JOINT RightFoot
				{
					OFFSET 0.524587 -53.427383 -12.948300
					CHANNELS 3 Xrotation Yrotation Zrotation
					JOINT RightToeBase
					{
						OFFSET -0.192200 -14.009700 16.364100
						CHANNELS 3 Xrotation Yrotation Zrotation
						JOINT RightToe_End
						{
							OFFSET 1.784700 -0.561700 9.474800
							CHANNELS 3 Xrotation Yrotation Zrotation
							End Site
							{
								OFFSET 0 0 0
							}
						}
					}
				}
			}
		}
	}
	JOINT Spine_virtual
	{
		OFFSET 0.000000 0.000000 0.000000
		CHANNELS 3 Xrotation Yrotation Zrotation
		JOINT Spine
		{
			OFFSET 0.072000 7.257294 -0.789700
			CHANNELS 3 Xrotation Yrotation Zrotation
			JOINT Spine1
			{
				OFFSET 0.000000 12.508769 -0.658067
				CHANNELS 3 Xrotation Yrotation Zrotation
				JOINT Spine1_split
				{
					OFFSET 0.000000 12.508769 -0.658067
					CHANNELS 3 Xrotation Yrotation Zrotation
					JOINT Spine2
					{
						OFFSET 0.000000 12.508769 -0.658067
						CHANNELS 3 Xrotation Yrotation Zrotation
						JOINT Neck_virtual
						{
							OFFSET 0.000000 0.000000 0.000000
							CHANNELS 3 Xrotation Yrotation Zrotation
							JOINT Neck
							{
								OFFSET 0.000000 14.033295 7.520400
								CHANNELS 3 Xrotation Yrotation Zrotation
								JOINT Head
								{
									OFFSET 0.000000 8.198502 5.703100
									CHANNELS 3 Xrotation Yrotation Zrotation
									JOINT HeadTop_End
									{
										OFFSET 0.000000 17.760803 13.332701
										CHANNELS 3 Xrotation Yrotation Zrotation
										End Site
										{
											OFFSET 0 0 0
										}
									}
								}
							}
						}
						JOINT LeftShoulder_virtual
						{
							OFFSET 0.000000 0.000000 0.000000
							CHANNELS 3 Xrotation Yrotation Zrotation
							JOINT LeftShoulder
							{
								OFFSET 6.292450 5.785301 -0.669000
								CHANNELS 3 Xrotation Yrotation Zrotation
								JOINT LeftShoulder_split
								{
									OFFSET 6.292450 5.785301 -0.669000
									CHANNELS 3 Xrotation Yrotation Zrotation
									JOINT LeftArm
									{
										OFFSET 13.907140 -6.093903 1.965100
										CHANNELS 3 Xrotation Yrotation Zrotation
										JOINT LeftForeArm
										{
											OFFSET 34.140198 0.000000 0.000000
											CHANNELS 3 Xrotation Yrotation Zrotation
											JOINT LeftHand
											{
												OFFSET 40.960209 0.000000 0.000000
												CHANNELS 3 Xrotation Yrotation Zrotation
												End Site
												{
													OFFSET 0 0 0
												}
											}
										}
									}
								}
							}
						}
						JOINT RightShoulder_virtual
						{
							OFFSET 0.000000 0.000000 0.000000
							CHANNELS 3 Xrotation Yrotation Zrotation
							JOINT RightShoulder
							{
								OFFSET -6.292450 5.785301 -0.669000
								CHANNELS 3 Xrotation Yrotation Zrotation
								JOINT RightShoulder_split
								{
									OFFSET -6.292450 5.785301 -0.669000
									CHANNELS 3 Xrotation Yrotation Zrotation
									JOINT RightArm
									{
										OFFSET -13.907140 -6.093903 1.965100
										CHANNELS 3 Xrotation Yrotation Zrotation
										JOINT RightForeArm
										{
											OFFSET -34.140198 0.000000 0.000000
											CHANNELS 3 Xrotation Yrotation Zrotation
											JOINT RightHand
											{
												OFFSET -40.960209 0.000000 0.000000
												CHANNELS 3 Xrotation Yrotation Zrotation
												End Site
												{
													OFFSET 0 0 0
												}
											}
										}
									}
								}
							}
						}
					}
				}
			}
		}
	}
}
MOTION
Frames: 5
Frame Time: 0.03333333
-12.357999 151.363586 -9.130619 0.000000 0.000000 0.000000 9.583085 -13.332423 -1.136432 -143.360357 -38.562982 23.489190 118.596946 -23.038954 -4.579357 33.048642 -20.853865 -15.562687 -0.017770 -0.000003 -0.000002 0.000000 0.000000 0.000000 9.583085 -13.332423 -1.136432 -105.804541 52.810261 -32.749343 129.990863 19.104121 3.068950 11.651408 15.427504 57.298430 -0.009721 -0.000007 -0.000007 0.000000 0.000000 0.000000 9.583085 -13.332423 -1.136432 33.294382 7.330710 1.377346 7.005172 1.340330 1.044127 0.000000 0.000000 0.000000 0.000000 0.000000 0.000000 7.005148 1.323487 1.067153 7.594026 3.568078 1.767956 -5.811991 29.196067 -21.913192 0.000000 0.000000 0.000000 7.005148 1.323487 1.067153 0.375792 -3.663679 3.525973 0.000000 0.000000 0.000000 -38.687831 19.601996 21.846148 0.000009 -0.833154 0.000005 0.000000 0.000000 0.000000 7.005148 1.323487 1.067153 -3.703293 -7.648395 -32.005939 0.000000 0.000000 0.000000 -45.797023 15.445747 -5.645447 0.000010 11.835333 -0.000006 0.000000 0.000000 0.000000 
-12.278047 149.416870 -8.768894 0.000000 0.000000 0.000000 10.352316 -12.377309 0.292546 -143.029762 -36.822745 28.588546 118.104325 -23.898326 -8.659450 35.431442 -25.223154 -7.928456 -0.018063 -0.000002 0.000003 0.000000 0.000000 0.000000 10.352316 -12.377309 0.292546 -96.010268 51.263944 -42.298381 127.600938 19.494250 5.368265 10.169887 14.772429 52.670765 -0.008784 -0.000000 0.000007 0.000000 0.000000 0.000000 10.352316 -12.377309 0.292546 32.990408 6.730234 0.034448 6.928084 1.411407 0.809337 0.000000 0.000000 0.000000 0.000000 0.000000 0.000000 6.927398 1.400736 0.834282 8.137138 3.359823 2.019694 -4.939802 28.238411 -21.457492 0.000000 0.000000 0.000000 6.927398 1.400736 0.834282 0.260224 -3.373977 3.577375 0.000000 0.000000 0.000000 -40.196053 20.677967 26.508053 -0.000005 -2.492642 0.000011 0.000000 0.000000 0.000000 6.927398 1.400736 0.834282 -2.438241 -4.287079 -32.305559 0.000000 0.000000 0.000000 -40.704041 7.760220 -13.687629 -0.000000 15.033129 -0.000009 0.000000 0.000000 0.000000 
-11.901983 145.607712 -8.421642 0.000000 0.000000 0.000000 10.020031 -12.672023 0.553998 -139.066613 -32.575648 30.936430 117.570368 -22.580394 -9.884838 37.213504 -22.692079 -1.919274 -0.017427 0.000008 -0.000002 0.000000 0.000000 0.000000 10.020031 -12.672023 0.553998 -90.922754 44.465556 -42.571773 125.354366 17.795979 5.482072 4.779039 12.465457 48.416776 -0.007155 -0.000002 -0.000000 0.000000 0.000000 0.000000 10.020031 -12.672023 0.553998 31.221631 6.874576 -0.816924 6.538967 1.568812 0.665331 0.000000 0.000000 0.000000 0.000000 0.000000 0.000000 6.537236 1.564635 0.691663 7.825986 3.324095 1.952253 -4.157730 27.663969 -21.379892 0.000000 0.000000 0.000000 6.537236 1.564635 0.691663 0.039207 -2.385780 4.168919 0.000000 0.000000 0.000000 -38.968319 20.585628 29.044399 0.000004 -3.374198 -0.000006 0.000000 0.000000 0.000000 6.537236 1.564635 0.691663 -1.195180 -0.396600 -31.763341 0.000000 0.000000 0.000000 -37.135144 -0.211834 -19.628944 0.000008 19.145505 -0.000010 0.000000 0.000000 0.000000 
-11.381678 140.029633 -8.562046 0.000000 0.000000 0.000000 8.592690 -13.093009 -0.040197 -134.376582 -26.894918 29.634435 117.684706 -19.406651 -7.878955 33.915297 -19.644329 -0.078937 -0.012170 0.000004 0.000006 0.000000 0.000000 0.000000 8.592690 -13.093009 -0.040197 -86.870505 36.046180 -37.816480 123.760419 14.882702 3.730536 -2.733307 7.714241 45.266577 -0.003640 0.000009 0.000006 0.000000 0.000000 0.000000 8.592690 -13.093009 -0.040197 28.708293 7.796786 -0.945012 5.995021 1.728299 0.680313 0.000000 0.000000 0.000000 0.000000 0.000000 0.000000 5.991696 1.728370 0.706514 7.528503 3.405293 1.903802 -4.302187 27.824756 -21.110890 0.000000 0.000000 0.000000 5.991696 1.728370 0.706514 -0.058444 -2.072650 4.852714 0.000000 0.000000 0.000000 -37.181873 21.291335 30.847474 0.000000 -3.951675 0.000000 0.000000 0.000000 0.000000 5.991696 1.728370 0.706514 -0.388921 2.653079 -30.259234 0.000000 0.000000 0.000000 -35.260073 -5.616370 -21.941783 0.000003 21.810553 0.000013 0.000000 0.000000 0.000000 
-10.704528 133.704224 -9.172993 0.000000 0.000000 0.000000 7.768439 -13.251638 -0.433823 -125.905235 -21.093665 30.060110 116.335989 -16.015206 -6.114983 24.404005 -19.664635 1.094390 -0.003833 -0.000005 0.000001 0.000000 0.000000 0.000000 7.768439 -13.251638 -0.433823 -80.438598 26.221651 -33.027397 120.273156 11.726849 1.870716 -9.216557 3.885731 42.213854 -0.002374 -0.000002 -0.000008 0.000000 0.000000 0.000000 7.768439 -13.251638 -0.433823 25.557572 8.592020 -0.765271 5.300980 1.785471 0.700158 0.000000 0.000000 0.000000 0.000000 0.000000 0.000000 5.295679 1.790811 0.722059 7.546954 3.440092 2.196754 -4.954696 28.066122 -20.266519 0.000000 0.000000 0.000000 5.295679 1.790811 0.722059 0.037771 -2.601990 4.679298 0.000000 0.000000 0.000000 -37.240254 23.924102 31.952807 0.000003 -4.755652 -0.000005 0.000000 0.000000 0.000000 5.295679 1.790811 0.722059 0.391410 5.297108 -26.175525 0.000000 0.000000 0.000000 -34.806705 -9.994415 -22.418694 0.000005 23.779771 0.000003 0.000000 0.000000 0.000000 
